HIERARCHY
ROOT Hips
{
	OFFSET	0.00	0.00	0.00
	CHANNELS 6 Xposition Yposition Zposition Zrotation Xrotation Yrotation
	JOINT LeftUpLeg
	{
		OFFSET	 0.126116	-0.014019	-0.065224
		CHANNELS 3 Zrotation Xrotation Yrotation
		JOINT LeftLeg
		{
			OFFSET	 0.000000	 0.000000	 0.569914
			CHANNELS 3 Zrotation Xrotation Yrotation
			JOINT LeftFoot
			{
				OFFSET	 0.000000	 0.000000	 0.544423
				CHANNELS 3 Zrotation Xrotation Yrotation
				JOINT LeftToeBase
				{
					OFFSET	 0.000000	 0.000000	 0.207117
					CHANNELS 3 Zrotation Xrotation Yrotation
					End Site
					{
						OFFSET	 0.000000	 0.000000	 0.207117
					}
				}
			}
		}
	}
	JOINT RightUpLeg
	{
		OFFSET	-0.124023	-0.008373	-0.065224
		CHANNELS 3 Zrotation Xrotation Yrotation
		JOINT RightLeg
		{
			OFFSET	 0.000000	 0.000000	 0.570047
			CHANNELS 3 Zrotation Xrotation Yrotation
			JOINT RightFoot
			{
				OFFSET	 0.000000	 0.000000	 0.544354
				CHANNELS 3 Zrotation Xrotation Yrotation
				JOINT RightToeBase
				{
					OFFSET	 0.000000	 0.000000	 0.207540
					CHANNELS 3 Zrotation Xrotation Yrotation
					End Site
					{
						OFFSET	 0.000000	 0.000000	 0.207540
					}
				}
			}
		}
	}
	JOINT Spine
	{
		OFFSET	 0.000184	-0.007763	 0.117403
		CHANNELS 3 Zrotation Xrotation Yrotation
		JOINT Spine1
		{
			OFFSET	 0.000000	 0.000000	 0.137269
			CHANNELS 3 Zrotation Xrotation Yrotation
			JOINT Spine2
			{
				OFFSET	 0.000000	 0.000000	 0.156879
				CHANNELS 3 Zrotation Xrotation Yrotation
				JOINT LeftShoulder
				{
					OFFSET	 0.080501	-0.002496	 0.160144
					CHANNELS 3 Zrotation Xrotation Yrotation
					JOINT LeftArm
					{
						OFFSET	 0.000000	 0.000000	 0.164363
						CHANNELS 3 Zrotation Xrotation Yrotation
						JOINT LeftForeArm
						{
							OFFSET	 0.000000	 0.000000	 0.364576
							CHANNELS 3 Zrotation Xrotation Yrotation
							JOINT LeftHand
							{
								OFFSET	 0.000000	 0.000000	 0.360812
								CHANNELS 3 Zrotation Xrotation Yrotation
								JOINT LeftHandIndex1
								{
									OFFSET	 0.000000	 0.000000	 0.086006
									CHANNELS 3 Zrotation Xrotation Yrotation
									JOINT LeftHandIndex2
									{
										OFFSET	 0.000000	 0.000000	 0.047236
										CHANNELS 3 Zrotation Xrotation Yrotation
										JOINT LeftHandIndex3
										{
											OFFSET	-0.004284	-0.000551	 0.038166
											CHANNELS 3 Zrotation Xrotation Yrotation
											End Site
											{
												OFFSET	-0.004284	-0.000551	 0.038166
											}
										}
									}
								}
							}
						}
					}
				}
				JOINT Neck
				{
					OFFSET	 0.000000	 0.000000	 0.176489
					CHANNELS 3 Zrotation Xrotation Yrotation
					JOINT Head
					{
						OFFSET	 0.000000	-0.001747	 0.077940
						CHANNELS 3 Zrotation Xrotation Yrotation
						End Site
						{
							OFFSET	 0.000000	-0.001747	 0.077940
						}
					}
				}
				JOINT RightShoulder
				{
					OFFSET	-0.080363	 0.000306	 0.159706
					CHANNELS 3 Zrotation Xrotation Yrotation
					JOINT RightArm
					{
						OFFSET	 0.000000	 0.000000	 0.164196
						CHANNELS 3 Zrotation Xrotation Yrotation
						JOINT RightForeArm
						{
							OFFSET	 0.000000	 0.000000	 0.365611
							CHANNELS 3 Zrotation Xrotation Yrotation
							JOINT RightHand
							{
								OFFSET	 0.000000	 0.000000	 0.360648
								CHANNELS 3 Zrotation Xrotation Yrotation
								JOINT RightHandIndex1
								{
									OFFSET	 0.000000	 0.000000	 0.069977
									CHANNELS 3 Zrotation Xrotation Yrotation
									JOINT RightHandIndex2
									{
										OFFSET	 0.000000	 0.000000	 0.052305
										CHANNELS 3 Zrotation Xrotation Yrotation
										JOINT RightHandIndex3
										{
											OFFSET	 0.009002	-0.000782	 0.042196
											CHANNELS 3 Zrotation Xrotation Yrotation
											End Site
											{
												OFFSET	 0.009002	-0.000782	 0.042196
											}
										}
									}
								}
							}
						}
					}
				}
			}
		}
	}
}
MOTION
Frames:    4
Frame Time: 0.03333334
-0.039559	 0.289866	 0.945942	 2.549711	 34.048430	-7.325086	 156.481700	-87.949100	-24.906740	 14.288050	-81.620030	 14.554300	-17.778940	 86.142830	 19.975160	-2.385832	 28.452790	-0.000001	 114.620900	-77.544590	-70.667390	-39.155650	-84.073680	-33.867150	 64.302210	 82.333620	-53.741790	 2.384659	 28.388700	-0.000001	 0.249499	 16.026660	 0.568624	-2.138373	 24.043630	 1.826245	-3.826717	-1.834958	 3.185275	-98.951550	 68.296540	 157.296900	 8.043150	-4.749005	-36.489060	-5.199681	 10.442380	-32.797890	-23.582520	-18.051210	-18.140410	-2.027600	 6.559038	 9.033609	-5.188889	 0.308190	 3.541030	-5.234859	 0.342567	 0.430617	-0.040666	 15.132820	-5.053771	-2.802002	-24.043840	-2.351062	 97.298560	 64.521260	-159.590900	-5.917076	 4.636327	 56.351170	-6.372209	 0.572822	 24.118600	 7.624693	-16.797370	 14.304820	 1.803333	 3.979147	-15.098590	 4.898592	 3.004813	-9.310344	 5.224449	 0.395017	 2.014677
-0.040287	 0.286692	 0.956168	 2.190801	 32.725230	-6.436862	-16.443440	-89.534800	 162.233400	 12.321620	-80.670640	 12.575070	-22.984130	 85.904140	 25.148480	-2.385832	 28.452790	-0.000001	 104.414300	-79.162410	-80.948910	-34.920800	-82.975350	-29.588800	 61.957070	 82.505670	-51.207330	 2.384659	 28.388700	-0.000001	 0.501886	 16.549060	 0.370904	-1.613412	 25.270220	 1.219048	-3.967454	-3.840000	 2.655674	-98.033450	 69.391360	 158.523800	 7.528976	-1.490382	-38.634480	-4.621036	 10.219690	-33.271260	-24.631120	-18.788820	-19.507190	-2.027600	 6.559038	 9.033609	-5.188889	 0.308190	 3.541030	-5.234859	 0.342567	 0.430617	-0.746810	 8.002329	-3.409590	-3.153026	-17.014800	-2.823045	 96.868010	 64.185620	-160.965900	-6.732031	 4.712332	 57.725840	-5.938225	 0.780157	 24.475780	 7.248713	-16.630440	 15.966360	 1.803333	 3.979147	-15.098590	 4.898592	 3.004813	-9.310344	 5.224449	 0.395017	 2.014677
-0.040013	 0.284384	 0.972023	 1.697609	 30.910550	-5.356939	-16.713730	-86.082930	 162.005000	 10.539380	-78.930480	 10.756890	-26.828380	 85.486370	 28.764600	-2.385833	 28.452760	 0.000004	 84.975450	-80.428700	-100.423100	-30.254580	-81.024620	-24.838140	 58.258200	 82.617490	-47.192590	 2.384659	 28.388700	-0.000001	 0.621062	 17.320260	 0.174206	-1.060853	 26.162670	 0.614370	-4.119872	-6.078661	 2.100899	-96.179530	 72.291560	 159.807500	 7.881444	 3.794317	-41.593640	-3.939019	 9.833497	-33.537610	-25.960970	-19.747010	-21.484370	-2.027600	 6.559038	 9.033609	-5.188889	 0.308190	 3.541030	-5.234859	 0.342567	 0.430617	-1.193690	-0.872613	-2.268728	-3.340747	-8.410616	-2.925608	 95.977970	 65.542400	-162.101700	-7.719940	 7.344123	 59.094650	-6.371506	 0.599888	 25.106130	 6.966397	-16.881650	 17.115220	 1.803333	 3.979147	-15.098590	 4.898592	 3.004813	-9.310344	 5.224449	 0.395017	 2.014677
-0.038594	 0.283113	 0.989087	 1.366263	 29.012850	-4.360337	-15.462460	-82.519820	 163.405100	 9.783010	-76.883690	 9.938838	-27.269840	 84.961800	 28.786780	-2.385833	 28.452750	 0.000004	 61.997090	-80.150050	-123.335000	-24.794700	-78.962360	-19.312100	 54.859340	 82.690700	-43.864600	 2.384659	 28.388700	-0.000001	 0.637189	 18.059280	-0.082952	-0.596488	 26.669120	-0.005068	-4.223649	-8.000203	 1.757688	-93.943060	 75.678340	 160.725800	 9.424423	 9.165647	-44.884670	-3.322118	 9.375708	-33.490910	-26.829990	-20.616680	-23.110640	-2.027600	 6.559038	 9.033609	-5.188889	 0.308190	 3.541030	-5.234859	 0.342567	 0.430617	-1.505642	-9.109543	-2.388948	-3.336584	-0.545154	-2.244788	 94.835110	 67.765570	-163.207000	-9.179144	 10.807660	 60.408090	-6.873247	 0.381430	 26.109460	 6.938395	-17.715060	 17.740950	 1.803333	 3.979147	-15.098590	 4.898592	 3.004813	-9.310344	 5.224449	 0.395017	 2.014677
